<?xml version="1.0" standalone="no"?>
<!DOCTYPE svg PUBLIC "-//W3C//DTD SVG 20010904//EN"
 "http://www.w3.org/TR/2001/REC-SVG-20010904/DTD/svg10.dtd">
<svg version="1.0" xmlns="http://www.w3.org/2000/svg"
 width="500.000000pt" height="500.000000pt" viewBox="0 0 500.000000 500.000000"
 preserveAspectRatio="xMidYMid meet">

<g transform="translate(0.000000,500.000000) scale(0.100000,-0.100000)"
fill="#000000" stroke="none">
<path d="M3360 3845 c-71 -23 -140 -82 -175 -150 -26 -50 -30 -70 -30 -134 0
-86 21 -142 73 -201 18 -19 32 -38 32 -41 0 -4 -11 -37 -25 -74 l-26 -68 49 6
c27 3 77 21 113 40 60 33 71 35 179 40 130 5 167 18 233 83 150 148 114 388
-73 486 -40 20 -61 23 -175 25 -92 2 -143 -2 -175 -12z m60 -259 c15 -20 9
-56 -12 -70 -13 -8 -22 -6 -37 8 -25 23 -26 39 -5 60 19 20 38 20 54 2z m118
2 c17 -17 15 -53 -3 -68 -33 -28 -75 22 -49 58 17 25 34 28 52 10z m113 2 c11
-6 19 -21 19 -35 0 -20 -24 -45 -44 -45 -10 0 -36 32 -36 45 0 13 26 45 36 45
3 0 14 -5 25 -10z"/>
<path d="M2323 3804 l2 -39 -80 -12 c-249 -40 -426 -101 -565 -196 -72 -49
-206 -175 -268 -252 -31 -38 -59 -72 -63 -75 -16 -14 -103 -165 -132 -230 -56
-121 -74 -187 -92 -330 -37 -294 11 -574 137 -799 l30 -55 -23 -18 -23 -19
-33 53 c-44 71 -107 233 -133 343 -12 50 -27 108 -33 130 -26 86 -9 434 23
494 5 9 19 50 31 91 30 100 86 220 154 324 71 111 76 166 8 94 -121 -130 -237
-375 -280 -593 -26 -130 -21 -371 10 -520 57 -271 173 -489 361 -678 123 -124
243 -213 385 -285 208 -107 343 -141 591 -149 150 -4 193 -2 299 16 337 57
616 206 808 430 180 210 286 428 339 696 24 124 25 397 1 514 -19 96 -82 287
-121 374 l-27 57 -91 0 c-86 0 -90 -1 -76 -17 21 -25 63 -102 57 -106 -2 -2
-26 -12 -54 -21 -46 -16 -51 -16 -60 0 -5 9 -22 34 -38 55 l-27 39 -39 -19
c-28 -15 -61 -20 -130 -22 -50 -1 -94 1 -97 3 -2 3 16 53 41 112 25 58 45 109
45 114 0 11 -94 102 -105 102 -5 0 -52 24 -104 54 -139 78 -286 121 -459 134
l-87 7 0 45 0 45 90 -3 c139 -4 346 -54 434 -104 56 -33 109 -58 121 -58 5 0
10 20 10 44 0 24 3 57 6 73 6 30 4 31 -68 60 -193 80 -365 120 -550 130 l-128
6 3 -39z m2 -158 l0 -39 -107 -18 c-224 -38 -408 -122 -563 -258 -175 -154
-304 -362 -363 -586 -20 -78 -48 -307 -39 -322 3 -5 7 -51 9 -103 l3 -95 -29
0 c-36 0 -41 15 -57 168 -33 333 87 664 338 927 106 111 177 167 286 225 130
69 250 109 396 130 123 18 126 18 126 -29z m280 -131 c44 -9 89 -22 100 -28
11 -6 23 -11 26 -10 3 1 6 -5 6 -13 0 -7 -7 -14 -14 -14 -8 0 -11 -5 -8 -10
10 -15 -34 -99 -82 -156 -24 -28 -40 -54 -36 -57 3 -4 1 -7 -6 -7 -8 0 -11 -7
-7 -15 3 -8 0 -15 -5 -15 -6 0 -9 9 -6 20 3 11 1 20 -4 20 -5 0 -9 -5 -9 -12
0 -6 -7 -3 -15 8 -14 18 -14 17 -5 -9 5 -16 6 -26 1 -23 -5 3 -11 -4 -14 -16
-5 -18 -8 -19 -21 -8 -9 7 -16 17 -16 22 0 6 7 5 15 -2 10 -9 15 -9 15 -1 0
10 -13 15 -32 12 -4 0 -21 17 -38 39 -40 50 -70 53 -101 8 -13 -18 -26 -35
-29 -38 -3 -3 -25 -29 -49 -58 -23 -28 -48 -49 -53 -45 -7 3 -8 1 -4 -6 9 -15
-20 -44 -35 -35 -8 4 -9 3 -5 -5 8 -12 -1 -22 -57 -64 -37 -28 -48 -29 -91
-11 -15 6 -17 4 -11 -6 6 -10 4 -12 -8 -7 -9 3 -19 2 -23 -4 -3 -5 -15 -7 -27
-3 -21 6 -21 5 -6 -11 14 -14 21 -15 39 -5 12 6 24 9 28 6 7 -8 -2 -16 -24
-20 -11 -3 -32 -9 -47 -15 -17 -7 -26 -7 -22 -1 3 6 14 10 23 10 15 1 15 2 2
9 -22 13 -35 13 -35 -1 0 -7 -5 -13 -12 -13 -7 0 -18 -6 -24 -12 -7 -7 -25
-13 -39 -13 -15 0 -34 -8 -44 -19 -19 -21 -52 -109 -60 -163 -3 -21 -8 -54
-11 -73 -3 -19 -12 -35 -19 -35 -22 0 -93 -68 -111 -105 -15 -34 -18 -35 -30
-19 -7 10 -11 24 -8 31 9 23 -45 15 -57 -7 -8 -15 -17 -19 -31 -15 -12 4 -19
2 -19 -8 0 -7 -7 -14 -15 -14 -8 0 -15 6 -15 12 0 7 -7 18 -15 25 -12 10 -15
9 -16 -6 -1 -16 -2 -16 -6 -2 -2 9 -14 18 -26 20 -20 3 -22 8 -19 63 6 133 76
325 173 475 64 99 237 265 339 324 238 140 500 185 755 131z m195 -371 c81
-40 108 -61 195 -148 79 -80 108 -117 136 -176 44 -89 76 -200 84 -290 l6 -65
-17 33 c-10 19 -40 54 -69 78 -45 39 -52 51 -63 103 -18 84 -51 183 -69 204
-9 9 -25 17 -35 17 -11 0 -43 20 -71 44 -79 65 -156 114 -212 132 -66 22 -75
30 -75 68 0 71 46 71 190 0z m-266 -122 c107 -111 207 -166 353 -192 l69 -13
12 -41 c16 -58 25 -365 15 -533 -9 -134 -11 -145 -45 -215 -73 -147 -246 -278
-444 -337 -89 -26 -109 -26 -198 0 -185 55 -364 187 -430 318 -50 99 -56 143
-56 441 0 223 3 285 15 322 l16 45 80 16 c161 32 273 103 396 254 l78 94 35
-43 c19 -24 66 -76 104 -116z m-484 -56 c0 -11 -19 -15 -25 -6 -3 5 1 10 9 10
9 0 16 -2 16 -4z m1516 -10 c7 -8 22 -12 32 -9 10 2 23 -2 29 -9 16 -19 41
-98 57 -181 72 -357 1 -733 -193 -1020 -62 -93 -165 -213 -215 -251 l-37 -28
-39 40 c-22 22 -40 43 -40 47 0 4 27 36 60 71 153 165 237 322 297 562 24 94
27 129 29 287 l3 180 40 3 c32 2 41 7 41 22 0 38 -10 46 -50 43 -23 -2 -42 2
-47 10 -14 22 -81 232 -76 240 8 13 94 8 109 -7z m-1826 -562 l0 -146 -22 14
c-86 56 -92 194 -12 257 15 12 28 21 30 21 2 0 4 -66 4 -146z m1368 101 c36
-40 49 -105 32 -150 -12 -31 -57 -85 -72 -85 -4 0 -8 61 -8 135 0 74 4 135 9
135 5 0 23 -16 39 -35z m-1692 -33 c7 -4 8 -15 3 -27 -7 -19 -8 -19 -8 2 -1
12 -7 24 -13 26 -7 3 -8 6 -3 6 6 0 15 -3 21 -7z m-32 -8 c19 -7 21 -55 4 -72
-34 -34 -82 13 -59 57 12 21 27 26 55 15z m273 -243 c21 -17 46 -31 56 -31 19
0 41 -45 33 -66 -5 -12 -85 -59 -90 -52 -8 11 -45 99 -54 128 -38 124 -41 163
-7 98 13 -25 41 -60 62 -77z m-258 81 c5 -9 14 -40 19 -67 6 -28 16 -69 23
-93 12 -44 2 -72 -27 -72 -15 0 -48 83 -65 169 -11 53 -11 64 1 71 23 15 38
12 49 -8z m1805 -47 c-20 -76 -64 -185 -74 -185 -5 0 -25 10 -45 21 -31 18
-36 26 -33 52 2 23 12 35 38 50 45 25 88 65 107 100 22 42 24 29 7 -38z
m-1907 -97 c5 -7 19 -43 31 -79 11 -36 32 -91 46 -122 43 -94 47 -107 36 -128
-6 -10 -15 -19 -20 -19 -24 0 -158 276 -160 328 0 7 10 17 23 22 30 12 33 12
44 -2z m2096 -119 c28 -44 -202 -390 -248 -373 -34 14 -27 44 27 104 56 64
125 171 148 230 24 63 50 76 73 39z m-1904 -338 c89 -120 216 -223 371 -301
150 -75 298 -109 515 -118 l160 -7 0 -44 c0 -41 -3 -45 -30 -53 -16 -5 -100
-6 -185 -3 -227 9 -411 61 -592 166 -127 73 -299 215 -374 306 -37 45 -37 47
-18 60 47 34 89 61 95 62 3 1 29 -30 58 -68z m1601 -60 c5 -11 7 -26 5 -34 -7
-18 -115 -97 -179 -130 -54 -28 -76 -26 -76 8 0 17 15 31 64 60 35 20 85 55
111 76 54 45 60 46 75 20z m-1300 -46 c100 -71 203 -118 316 -146 101 -24 125
-39 104 -63 -17 -21 -44 -20 -137 5 -78 20 -303 124 -303 140 0 4 -8 10 -18
13 -21 7 -92 72 -92 84 0 5 3 12 7 15 16 16 49 3 123 -48z m1343 -142 c25 -35
28 -45 17 -58 -42 -51 -413 -195 -502 -195 -31 0 -36 8 -40 59 l-3 34 100 29
c104 30 275 107 335 152 19 14 41 24 49 23 7 -1 27 -21 44 -44z m-348 -8 c0
-27 -3 -30 -30 -30 -21 0 -31 5 -33 18 -6 33 6 49 35 45 24 -3 28 -8 28 -33z"/>
<path d="M2130 3080 c-12 -8 -11 -10 8 -10 12 0 22 5 22 10 0 13 -11 13 -30 0z"/>
<path d="M2090 3055 c0 -17 9 -19 28 -6 11 7 10 10 -3 15 -23 9 -25 8 -25 -9z"/>
<path d="M2063 3052 c-7 -4 -9 -13 -4 -21 6 -9 10 -7 14 8 3 12 4 21 4 21 -1
0 -7 -4 -14 -8z"/>
<path d="M1985 3011 c-6 -11 9 -23 19 -14 9 9 7 23 -3 23 -6 0 -12 -4 -16 -9z"/>
<path d="M1572 2550 c0 -19 2 -27 5 -17 2 9 2 25 0 35 -3 9 -5 1 -5 -18z"/>
<path d="M2757 2694 c-3 -3 -3 -12 -1 -19 4 -8 -15 -27 -45 -47 -39 -27 -48
-37 -39 -46 9 -9 3 -12 -26 -12 -30 0 -35 -2 -24 -12 7 -7 25 -19 40 -27 51
-26 73 -59 73 -108 0 -38 -5 -49 -33 -74 -56 -50 -157 -32 -177 31 -4 11 -10
18 -14 16 -4 -3 -6 9 -3 27 2 24 1 28 -7 17 -6 -8 -19 -15 -29 -16 -11 -1 -31
-4 -46 -8 -25 -6 -26 -8 -26 -89 0 -45 -3 -112 -7 -149 l-6 -68 145 0 c121 0
148 -3 159 -16 9 -11 10 -20 2 -32 -9 -15 -42 -18 -257 -24 -257 -7 -312 -12
-285 -29 11 -7 11 -9 0 -9 -7 0 -11 -6 -7 -15 3 -9 0 -15 -9 -15 -8 0 -19 -9
-25 -19 -9 -17 -4 -24 32 -49 73 -48 186 -93 242 -95 60 -2 112 13 219 65 99
48 186 131 224 213 l28 60 3 268 3 267 -33 1 c-18 1 -39 1 -47 0 -7 -2 -10 2
-6 8 7 12 -7 15 -18 5z"/>
<path d="M2580 2540 c-8 -5 -10 -10 -5 -10 6 0 17 5 25 10 8 5 11 10 5 10 -5
0 -17 -5 -25 -10z"/>
<path d="M2250 2350 c-29 -41 -112 -46 -156 -9 -10 8 -14 8 -14 0 0 -17 61
-51 93 -51 37 0 82 27 96 57 13 28 1 30 -19 3z"/>
<path d="M1316 3362 c-2 -4 -1 -14 3 -21 6 -9 11 -10 15 -2 4 6 2 11 -4 11 -6
0 -8 5 -5 10 3 6 4 10 1 10 -3 0 -7 -4 -10 -8z"/>
</g>
</svg>
